<svg viewBox="0 0 200 200" xmlns="http://www.w3.org/2000/svg" fill="#ce4747">
  <path
    d="M 87.911 0.768 C 20.313 9.346 -19.388 81.334 9.598 142.77 C 36.288 199.34 108.18 217.705 158.883 180.905 C 193.227 155.978 208.055 111.689 195.686 70.985 C 181.66 24.829 135.466 -5.267 87.911 0.768 M 79.19 33.213 C 86.167 35.351 93.023 41.667 93.023 45.957 C 93.023 48.427 90.255 48.151 89.089 45.564 C 85.898 38.486 74.786 34.205 66.182 36.74 C 55.136 39.993 47.841 48.456 38.082 69.333 C 30.93 84.634 25.102 93.024 18.388 97.682 C 16.297 99.132 16.265 99.291 17.88 100.245 C 22.863 103.189 30.47 113.432 35.428 123.874 C 46.033 146.211 48.699 150.637 54.968 156.31 C 64.942 165.336 78.406 166.712 86.557 159.537 C 89.032 157.358 89.051 157.407 85.211 156.297 C 61.268 149.377 45.279 125.508 45.356 96.795 C 45.419 72.837 57.349 58.772 81.667 53.981 C 85.568 53.213 101.038 52.913 103.449 53.559 C 104.341 53.798 104.585 53.721 104.585 53.203 C 104.585 52.84 105.077 51.303 105.679 49.788 C 112.859 31.718 135.46 27.759 148.852 42.226 C 154.64 48.477 157.412 53.803 163.715 70.779 C 169.585 86.588 176.828 95.323 186.163 97.85 C 190.21 98.946 190.907 101.285 187.453 102.181 C 179.463 104.257 174.844 109.873 168.79 124.877 C 162.23 141.131 155.806 150.64 147.135 156.936 C 135.874 165.112 120.729 165.677 111.164 158.279 C 109.828 157.245 109.543 157.179 108.068 157.56 C 107.174 157.792 103.411 158.057 99.705 158.151 L 92.967 158.321 L 90.827 160.668 C 83.895 168.268 73.267 170.144 62.51 165.665 C 51.299 160.997 43.714 151.394 33.74 129.231 C 27.725 115.867 20.184 105.791 13.209 101.8 C 9.689 99.786 9.531 98.505 12.594 96.807 C 17.382 94.152 22.329 89.32 26.264 83.458 C 28.133 80.674 35.627 66.412 35.627 65.638 C 35.627 65.32 39.366 57.806 40.981 54.879 C 50.615 37.419 65.454 29.004 79.19 33.213 M 123.471 37.943 C 115.972 40.007 109.824 46.767 108.272 54.651 C 107.68 57.663 107.212 57.971 103.924 57.525 C 78.139 54.025 57.239 63.745 51.006 82.135 C 48.692 88.964 48.252 101.26 50.025 109.597 C 53.937 128.003 63.868 141.856 78.57 149.417 C 83.069 151.73 89.997 154.083 91.082 153.666 C 91.717 153.422 95.201 147.498 97.585 142.607 L 98.906 139.895 L 96.182 134.347 C 87.3 116.262 77.769 100.29 65.422 82.801 C 59.106 73.854 58.138 74.497 77.93 74.489 C 98.166 74.481 112.236 73.573 129.707 71.148 C 138.742 69.895 138.705 69.303 130.563 85.464 C 105.698 134.806 103.287 139.736 103.579 140.666 C 104.387 143.242 110.227 152.958 110.967 152.958 C 111.709 152.958 118.648 150.08 121.671 148.519 C 144.723 136.612 156.733 108.12 148.748 84.284 C 143.89 69.785 130.576 57.745 116.435 55.063 C 114.196 54.638 113.685 54.201 113.675 52.703 C 113.649 48.766 126.97 53.151 135.76 59.973 C 169.107 85.852 157.348 140.362 115.133 155.596 C 112.513 156.542 121.582 159.569 127.006 159.558 C 143.681 159.526 155.16 148.569 165.501 122.812 C 170.472 110.43 175.021 103.801 180.508 100.939 C 181.489 100.429 181.488 100.429 179.785 99.461 C 175.258 96.889 171.094 92.818 167.356 87.306 C 164.569 83.197 162.958 79.601 157.637 65.617 C 149.131 43.26 137.726 34.021 123.471 37.943 M 125.437 75.552 C 112.065 77.33 85.428 78.864 73.194 78.562 C 70.019 78.483 67.422 78.53 67.422 78.666 C 67.422 78.802 68.014 79.732 68.739 80.731 C 73.066 86.702 81.462 99.67 85.555 106.707 C 86.546 108.41 87.703 110.307 88.125 110.922 C 88.548 111.538 88.894 112.118 88.894 112.212 C 88.894 112.305 89.877 114.125 91.079 116.255 C 93.28 120.153 96.287 125.916 99.395 132.19 L 101.075 135.58 L 116.146 105.626 C 124.436 89.152 131.28 75.5 131.355 75.29 C 131.525 74.819 130.672 74.857 125.437 75.552 M 98.535 148.864 C 95.217 155.356 95.013 154.785 100.534 154.489 C 107.039 154.14 106.942 154.207 105.018 151.373 C 104.145 150.088 102.871 147.936 102.188 146.592 L 100.943 144.15 L 98.535 148.864"
    stroke="none" fill-rule="evenodd"></path>
</svg>
