<svg xmlns="http://www.w3.org/2000/svg" viewBox="0 0 100 96"><path d="M7.812 958.393a2 2 0 0 0-1.812 2v69.975a2 2 0 0 0 2 2h46.64a2 2 0 1 0 0-4H10v-65.977h65.978v44.641a2 2 0 1 0 4 0v-46.64a2 2 0 0 0-2-2H7.999a2 2 0 0 0-.187 0zm35.176 15.994c-11.57 0-20.993 9.423-20.993 20.993 0 11.57 9.422 20.993 20.993 20.993 11.57 0 20.993-9.423 20.993-20.993 0-11.57-9.422-20.993-20.993-20.993zm0 3.999c9.41 0 16.995 7.585 16.995 16.994 0 9.41-7.585 16.994-16.995 16.994a16.964 16.964 0 0 1-16.994-16.994c0-9.41 7.585-16.994 16.994-16.994zm-.219 3.967a2 2 0 0 0-1.78 2.03v1.094c-2.916.49-4.999 3.077-4.999 5.904 0 3.408 3.193 5.998 6.998 5.998 2.229 0 3 .977 3 2 0 1.29-.505 1.999-2 1.999H37.99a2 2 0 1 0 0 3.998h2.999v1a2 2 0 1 0 3.998 0v-1.093c2.915-.492 4.999-3.079 4.999-5.904 0-3.408-3.193-5.998-6.998-5.998-2.229 0-2.999-.977-2.999-2 0-1.29.504-1.999 2-1.999h5.997a2 2 0 1 0 0-3.999h-2.999v-1a2 2 0 0 0-2.218-2.03zm34.989 31.99a2 2 0 0 0-1.78 2.03v11.995H63.98a2 2 0 0 0-.187 0 2.002 2.001 0 1 0 .187 4h11.996v11.995a2 2 0 1 0 4 0v-11.996h11.995a2 2 0 1 0 0-3.999H79.976v-11.995a2 2 0 0 0-2.218-2.03z" color="#000" overflow="visible" style="text-indent:0;text-transform:none;block-progression:tb" transform="translate(0 -952.362)"/></svg>
