<svg xmlns="http://www.w3.org/2000/svg" viewBox="0 0 122.88 120.64"><path d="M108.91 54.03a8.288 8.288 0 0 1 5.85-2.28c2.11.03 4.2.84 5.79 2.44l.12.12c1.5 1.58 2.23 3.6 2.2 5.61a7.947 7.947 0 0 1-2.37 5.55c-17.66 17.66-35.61 35.13-53.4 52.68-.05.07-.1.13-.16.19a8.335 8.335 0 0 1-5.87 2.28 8.323 8.323 0 0 1-5.8-2.45l-.26-.27C37.47 100.43 19.87 82.98 2.36 65.46A7.956 7.956 0 0 1 0 59.92c-.03-2.01.7-4.03 2.21-5.61l.15-.15a8.318 8.318 0 0 1 5.76-2.41c2.1-.03 4.22.73 5.85 2.28l47.27 47.22 47.67-47.22zm-2-51.77A8.265 8.265 0 0 1 112.74 0c2.11.03 4.2.84 5.79 2.44l.12.12c1.5 1.57 2.23 3.6 2.21 5.61a7.947 7.947 0 0 1-2.37 5.55C101.2 31.01 84.2 48.87 67.12 66.39c-.05.07-.11.14-.17.21a8.335 8.335 0 0 1-5.87 2.28 8.323 8.323 0 0 1-5.8-2.45C38.33 48.94 21.44 31.36 4.51 13.83l-.13-.12a7.945 7.945 0 0 1-2.35-5.54c-.03-2.01.7-4.03 2.2-5.61l.15-.15A8.336 8.336 0 0 1 10.14 0c2.1-.03 4.22.73 5.85 2.28l45.24 47.18 45.68-47.2z"/></svg>
