<svg xmlns="http://www.w3.org/2000/svg" viewBox="0 0 80 80"><path d="M53.049 20.807a5.258 5.258 0 0 0-3.601-1.421H22A2.617 2.617 0 0 0 19.386 22v36A2.617 2.617 0 0 0 22 60.614h36A2.617 2.617 0 0 0 60.614 58V30.165c0-1.455-.61-2.859-1.674-3.854l-5.891-5.504ZM58.614 58a.614.614 0 0 1-.614.614H22a.614.614 0 0 1-.614-.614V22c0-.339.275-.614.614-.614h27.448a3.262 3.262 0 0 1 2.235.882l5.892 5.505a3.283 3.283 0 0 1 1.039 2.393V58Z"/><path d="M32.095 31.742h3.382v3.382h-3.382v-3.382Zm6.214 0h3.382v3.382h-3.382v-3.382Zm6.215 0h3.382v3.382h-3.382v-3.382Zm-12.429 6.453h3.382v3.382h-3.382v-3.382Zm6.214 0h3.382v3.382h-3.382v-3.382Zm6.215 0h3.382v3.382h-3.382v-3.382Zm-12.429 6.454h3.382v3.382h-3.382v-3.382Zm6.214 0h3.382v3.382h-3.382v-3.382Zm6.215 0h3.382v3.382h-3.382v-3.382Z"/><path d="M76 24.577a1 1 0 1 0 0-2h-8.438v-4.39a5.756 5.756 0 0 0-5.75-5.75h-4.39V4a1 1 0 1 0-2 0v8.438h-8.948V4a1 1 0 1 0-2 0v8.438h-8.949V4a1 1 0 1 0-2 0v8.438h-8.948V4a1 1 0 1 0-2 0v8.438h-4.391a5.756 5.756 0 0 0-5.75 5.75v4.39H4a1 1 0 1 0 0 2h8.437v8.948H4a1 1 0 1 0 0 2h8.437v8.949H4a1 1 0 1 0 0 2h8.437v8.948H4a1 1 0 1 0 0 2h8.437v4.39a5.756 5.756 0 0 0 5.75 5.75h4.391V76a1 1 0 1 0 2 0v-8.438h8.948V76a1 1 0 1 0 2 0v-8.438h8.949V76a1 1 0 1 0 2 0v-8.438h8.948V76a1 1 0 1 0 2 0v-8.438h4.39a5.756 5.756 0 0 0 5.75-5.75v-4.39H76a1 1 0 1 0 0-2h-8.438v-8.948H76a1 1 0 1 0 0-2h-8.438v-8.949H76a1 1 0 1 0 0-2h-8.438v-8.948H76ZM65.563 61.813a3.755 3.755 0 0 1-3.75 3.75H18.187a3.755 3.755 0 0 1-3.75-3.75V18.188a3.755 3.755 0 0 1 3.75-3.75h43.626a3.755 3.755 0 0 1 3.75 3.75v43.625Z"/></svg>
