<svg xmlns="http://www.w3.org/2000/svg" viewBox="0 0 80 80"><circle cx="18.967" cy="9.459" r="1.84"/><circle cx="61.122" cy="9.459" r="1.84"/><path d="M62.673 2.562H17.327a5.506 5.506 0 0 0-5.5 5.5v63.877c0 3.032 2.467 5.5 5.5 5.5h45.346c3.033 0 5.5-2.468 5.5-5.5V8.062c0-3.033-2.467-5.5-5.5-5.5Zm3.5 69.376c0 1.93-1.57 3.5-3.5 3.5H17.327c-1.93 0-3.5-1.57-3.5-3.5V8.062c0-1.93 1.57-3.5 3.5-3.5h45.346c1.93 0 3.5 1.57 3.5 3.5v63.876Z"/><path d="M39.896 8.46C26.83 8.46 16.2 19.09 16.2 32.156c0 10.055 6.393 18.989 15.742 22.32l-2.832 2.619-8.278-7.299a2.096 2.096 0 0 0-2.274-.342 2.096 2.096 0 0 0-1.248 1.932V69a3.153 3.153 0 0 0 3.149 3.149h39.477a2.63 2.63 0 0 0 2.627-2.627V61.03c0-2.35-1.781-4.262-3.971-4.262a.972.972 0 0 0-.43.106 1.883 1.883 0 0 0-.599-.106h-9.03a1.908 1.908 0 0 0-1.906 1.906v1.657c0 .893.62 1.64 1.451 1.845v3.002H41.19v-2.093a1 1 0 0 0-1-1h-5.857l5.777-6.29c.083.022.164.051.254.051h.021c12.796-.26 23.207-10.888 23.207-23.691 0-13.065-10.63-23.695-23.696-23.695Zm-7.058 52.298a5.662 5.662 0 0 0-2.118-2.427l9.131-8.444c1.417-.262 2.8-.682 4.123-1.253L32.838 60.758Zm-1.49 2.329a3.637 3.637 0 0 1-3.633 3.633 3.637 3.637 0 0 1-3.633-3.633 3.637 3.637 0 0 1 3.633-3.633 3.637 3.637 0 0 1 3.633 3.633Zm29.215-2.057v8.492a.627.627 0 0 1-.627.627h-1.594v-8.081a1.907 1.907 0 0 0 1.128-1.736v-1.316c.645.372 1.093 1.131 1.093 2.014Zm-11.936-2.261h8.842v1.47h-8.842v-1.47Zm.451 8.411a1 1 0 0 0 1-1v-3.941h6.263v7.911H41.19v-2.97h7.888Zm-9.888 2.969H20.46A1.151 1.151 0 0 1 19.311 69V51.386c0-.025 0-.077.07-.109.071-.029.11.003.129.02l7.108 6.267a5.642 5.642 0 0 0-4.535 5.524 5.64 5.64 0 0 0 5.633 5.633c2.764 0 5.065-2.003 5.539-4.633h5.936v6.061h-.001Zm2.819-16.419 8.775-9.554a1 1 0 0 0-1.396-1.429c-.017.015-.314.272-.93.737a52.906 52.906 0 0 1-3.254 2.244c-2.767 1.775-5.915 2.224-5.946 2.228a1.007 1.007 0 0 0-.544.257l-5.086 4.704C24.521 50.171 18.2 41.721 18.2 32.156c0-11.963 9.733-21.696 21.696-21.696 11.963 0 21.696 9.733 21.696 21.696 0 11.161-8.644 20.497-19.583 21.574Z"/><path d="M39.896 24.942c-4.438 0-8.048 3.61-8.048 8.048 0 4.438 3.61 8.047 8.048 8.047 4.438 0 8.047-3.609 8.047-8.047 0-4.438-3.61-8.048-8.047-8.048Zm0 14.095a6.054 6.054 0 0 1-6.048-6.047 6.055 6.055 0 0 1 6.048-6.048 6.054 6.054 0 0 1 6.047 6.048 6.054 6.054 0 0 1-6.047 6.047Z"/></svg>
