<svg xmlns="http://www.w3.org/2000/svg" data-name="Layer 2" viewBox="0 0 90 90"><path d="M18.63 41.506a.992.992 0 1 0 1.41-1.4 7 7 0 0 1-2.05-4.96c0-1.87.73-3.62 2.05-4.96a.996.996 0 1 0-1.41-1.41 8.967 8.967 0 0 0-2.63 6.36c0 2.39.93 4.66 2.63 6.36v.01Zm51.33.01c.19.19.45.29.7.29.25 0 .51-.1.71-.3a8.967 8.967 0 0 0 2.63-6.36c0-2.39-.93-4.66-2.63-6.36a.996.996 0 1 0-1.41 1.41 7 7 0 0 1 2.05 4.96c0 1.87-.73 3.62-2.05 4.96a.996.996 0 0 0 0 1.41v-.01Z"/><path d="M14.39 45.756c.2.2.45.29.71.29.26 0 .51-.1.71-.29a.996.996 0 0 0 0-1.41c-2.46-2.47-3.81-5.73-3.81-9.19 0-3.46 1.35-6.73 3.81-9.19a.996.996 0 1 0-1.41-1.41 14.943 14.943 0 0 0-4.39 10.61c0 4 1.56 7.76 4.39 10.61l-.01-.02ZM78 35.146c0 3.46-1.35 6.73-3.81 9.19a.996.996 0 0 0 .71 1.7c.26 0 .51-.1.71-.29 2.83-2.84 4.39-6.61 4.39-10.61 0-4-1.56-7.76-4.39-10.61a.996.996 0 1 0-1.41 1.41c2.46 2.46 3.81 5.73 3.81 9.19l-.01.02Z"/><path d="M10.86 50.286c.26 0 .51-.1.71-.29a.996.996 0 0 0 0-1.41C7.98 44.996 6 40.226 6 35.156s1.98-9.84 5.57-13.43a.996.996 0 1 0-1.41-1.41 20.854 20.854 0 0 0-6.15 14.85c0 5.61 2.19 10.88 6.15 14.85.2.2.45.29.71.29l-.01-.02ZM84 35.146c0 5.07-1.98 9.84-5.57 13.43a.996.996 0 0 0 .71 1.7c.26 0 .51-.1.71-.29 3.97-3.97 6.15-9.24 6.15-14.85 0-5.61-2.19-10.88-6.15-14.85a.996.996 0 1 0-1.41 1.41c3.59 3.59 5.57 8.36 5.57 13.43l-.01.02Z"/><path d="M85 60.006H54v-3c0-.55-.45-1-1-1h-5v-6h15c.55 0 1-.45 1-1v-28c0-.55-.45-1-1-1H27c-.55 0-1 .45-1 1v28c0 .55.45 1 1 1h15v6h-5c-.55 0-1 .45-1 1v3H5c-.55 0-1 .45-1 1v4c0 .55.45 1 1 1h31v3c0 .55.45 1 1 1h16c.55 0 1-.45 1-1v-3h31c.55 0 1-.45 1-1v-4c0-.55-.45-1-1-1Zm-57-38h34v26H28v-26Zm16 28h2v6h-2v-6Zm-38 14v-2h30v2H6Zm46 4H38v-10h14v10Zm32-4H54v-2h30v2Z"/></svg>
