<svg xmlns="http://www.w3.org/2000/svg" viewBox="0 0 50 50"><path d="M38 24v-6a3 3 0 0 0-3-3H8a3 3 0 0 0-3 3v6a3 3 0 0 0 3 3h27a3 3 0 0 0 3-3Zm-21.5-5h12a.5.5 0 0 1 0 1h-12a.5.5 0 0 1 0-1ZM12 23.5c-1.925 0-3.127-2.083-2.165-3.75.962-1.667 3.368-1.667 4.33 0A2.5 2.5 0 0 1 12 23.5Zm20.5-.5h-16a.5.5 0 0 1 0-1h16a.5.5 0 0 1 0 1Z" transform-origin="25.5px 25px"/><path d="M39 1H23a6 6 0 0 0-6 6v6h2V9.5a.5.5 0 0 1 .5-.5h23a.5.5 0 0 1 .5.5v29a.5.5 0 0 1-.5.5h-23a.5.5 0 0 1-.5-.5V29h-2v14a6 6 0 0 0 6 6h16a6 6 0 0 0 6-6V7a6 6 0 0 0-6-6Zm-5.5 5h-5a.5.5 0 0 1 0-1h5a.5.5 0 0 1 0 1Zm-.08 38.12a2.46 2.46 0 0 1-1.8 1.8c-1.802.418-3.418-1.198-3-3a2.46 2.46 0 0 1 1.8-1.8c1.802-.418 3.418 1.198 3 3Z" transform-origin="25.5px 25px"/><circle cx="12" cy="21" r="1.5" transform-origin="25.5px 25px"/></svg>
