<svg xmlns="http://www.w3.org/2000/svg" viewBox="0 0 95 95"><path d="M4.001 63.993h1.822v6.071a1 1 0 0 0 1 1h20.718a1 1 0 0 0 1-1v-2.285h2.781v2.285a1 1 0 0 0 1 1h46.66a1 1 0 0 0 1-1v-6.071h1.823a1 1 0 0 0 1-1V54.47l6.467-.865a1 1 0 0 0 .858-1.124l-.804-6.017 1.807-.242a1 1 0 0 0 .858-1.124l-2.327-17.411c-.315-2.363-2.497-4.021-4.86-3.714l-70.527 9.428a4.297 4.297 0 0 0-2.863 1.66 4.299 4.299 0 0 0-.85 3.199l.38 2.842H7.626a4.63 4.63 0 0 0-4.625 4.625v17.266a1 1 0 0 0 1 1Zm73.981 5.071H73.71v-2.285a1 1 0 0 0-2 0v2.285h-4.634v-2.285a1 1 0 0 0-2 0v2.285h-4.634v-2.285a1 1 0 0 0-2 0v2.285h-4.635v-2.285a1 1 0 0 0-2 0v2.285h-4.634v-2.285a1 1 0 0 0-2 0v2.285h-4.634v-2.285a1 1 0 0 0-2 0v2.285h-5.218v-2.285a1 1 0 0 0-1-1h-4.78a1 1 0 0 0-1 1v2.285h-4.803v-2.285a1 1 0 0 0-2 0v2.285h-5.184v-2.285a1 1 0 0 0-2 0v2.285H7.823v-5.071h70.159v5.071Zm4.824-16.612v-5.116l4.539-.607.671 5.026-5.21.697ZM12.547 37.995a2.305 2.305 0 0 1 .456-1.719 2.311 2.311 0 0 1 1.54-.893l70.527-9.428a2.332 2.332 0 0 1 1.72.457c.493.377.811.924.893 1.54l2.194 16.42-1.805.241h-.001l-5.306.709c-.208-2.358-2.173-4.221-4.585-4.221H52.904l9.175-1.227a1 1 0 0 0 .858-1.124l-.665-4.976a.998.998 0 0 0-1.124-.858l-21.695 2.9a1 1 0 0 0-.858 1.124l.556 4.16H12.962l-.415-3.105Zm28.163-.327 19.713-2.635.399 2.993-19.713 2.635-.399-2.993Zm-35.709 8.06a2.629 2.629 0 0 1 2.625-2.625H78.18a2.63 2.63 0 0 1 2.626 2.625v16.266H5.001V45.728Z"/><path d="M57.94 48.834h19.508a1 1 0 0 0 0-2H57.94a1 1 0 1 0 0 2Zm0 5.02h19.508a1 1 0 0 0 0-2H57.94a1 1 0 1 0 0 2Zm-49.239-5.02h18.84a1 1 0 0 0 0-2H8.701a1 1 0 1 0 0 2Zm0 5.02h18.84a1 1 0 0 0 0-2H8.701a1 1 0 1 0 0 2Zm23.258 0h21.888a1 1 0 0 0 1-1v-5.02a1 1 0 0 0-1-1H31.959a1 1 0 0 0-1 1v5.02a1 1 0 0 0 1 1Zm1-5.02h19.888v3.02H32.959v-3.02Zm32.378-14.467c.044 0 .089-.003.134-.009l19.336-2.585a1 1 0 1 0-.266-1.982l-19.336 2.585a1 1 0 0 0 .132 1.991Zm.533 2.985a1 1 0 1 0 .266 1.982l19.336-2.585a1 1 0 1 0-.266-1.982L65.87 37.352Zm-30.797-.949-10.079 1.348a1 1 0 1 0 .266 1.982l10.079-1.348a1 1 0 1 0-.266-1.982Z"/></svg>
