<svg xmlns="http://www.w3.org/2000/svg" viewBox="0 0 80 80"><path d="M73.2 31.1h-.6V19.2c0-3-2.4-5.5-5.5-5.5H9.2c-3 0-5.5 2.4-5.5 5.5v41.6c0 3 2.4 5.5 5.5 5.5h57.9c3 0 5.5-2.4 5.5-5.5V47.9h.6c1.7 0 3.1-1.4 3.1-3.1V34.2c0-1.7-1.4-3.1-3.1-3.1Zm-2.7 29.7c0 1.9-1.5 3.5-3.5 3.5H9.2c-1.9 0-3.5-1.5-3.5-3.5V19.2c0-1.9 1.5-3.5 3.5-3.5h57.9c1.9 0 3.5 1.5 3.5 3.5v11.9H49.2c-1.7 0-3.1 1.4-3.1 3.1v10.5c0 1.7 1.4 3.1 3.1 3.1h21.3v13Zm3.8-16.1c0 .6-.5 1.1-1.1 1.1h-24c-.6 0-1.1-.5-1.1-1.1V34.2c0-.6.5-1.1 1.1-1.1h24c.6 0 1.1.5 1.1 1.1v10.5Z"/><path d="M54.7 35.8c-2 0-3.7 1.6-3.7 3.7s1.6 3.7 3.7 3.7 3.7-1.6 3.7-3.7-1.7-3.7-3.7-3.7Zm0 5.3c-.9 0-1.7-.7-1.7-1.7s.7-1.7 1.7-1.7 1.7.7 1.7 1.7-.8 1.7-1.7 1.7Zm-42.2-22H10c-.6 0-1 .4-1 1s.4 1 1 1h2.5c.6 0 1-.4 1-1s-.5-1-1-1Zm6.6 0h-2.5c-.6 0-1 .4-1 1s.4 1 1 1h2.5c.6 0 1-.4 1-1s-.4-1-1-1Zm6.7 0h-2.5c-.6 0-1 .4-1 1s.4 1 1 1h2.5c.6 0 1-.4 1-1s-.4-1-1-1Zm6.7 0H30c-.6 0-1 .4-1 1s.4 1 1 1h2.5c.6 0 1-.4 1-1s-.5-1-1-1Zm6.7 0h-2.6c-.6 0-1 .4-1 1s.4 1 1 1h2.5c.6 0 1-.4 1-1s-.4-1-.9-1Zm4.1 2h2.5c.6 0 1-.4 1-1s-.4-1-1-1h-2.5c-.6 0-1 .4-1 1s.5 1 1 1Zm6.7 0h2.5c.6 0 1-.4 1-1s-.4-1-1-1H50c-.6 0-1 .4-1 1s.5 1 1 1Zm6.7 0h2.5c.6 0 1-.4 1-1s-.4-1-1-1h-2.5c-.6 0-1 .4-1 1s.4 1 1 1Zm6.7 0h2.5c.6 0 1-.4 1-1s-.4-1-1-1h-2.5c-.6 0-1 .4-1 1s.4 1 1 1ZM12.5 58.4H10c-.6 0-1 .4-1 1s.4 1 1 1h2.5c.6 0 1-.4 1-1s-.5-1-1-1Zm6.6 0h-2.5c-.6 0-1 .4-1 1s.4 1 1 1h2.5c.6 0 1-.4 1-1s-.4-1-1-1Zm6.7 0h-2.5c-.6 0-1 .4-1 1s.4 1 1 1h2.5c.6 0 1-.4 1-1s-.4-1-1-1Zm6.7 0H30c-.6 0-1 .4-1 1s.4 1 1 1h2.5c.6 0 1-.4 1-1s-.5-1-1-1Zm6.7 0h-2.6c-.6 0-1 .4-1 1s.4 1 1 1h2.5c.6 0 1-.4 1-1s-.4-1-.9-1Zm6.7 0h-2.5c-.6 0-1 .4-1 1s.4 1 1 1h2.5c.6 0 1-.4 1-1s-.5-1-1-1Zm4.1 2h2.5c.6 0 1-.4 1-1s-.4-1-1-1H50c-.6 0-1 .4-1 1s.5 1 1 1Zm6.7 0h2.5c.6 0 1-.4 1-1s-.4-1-1-1h-2.5c-.6 0-1 .4-1 1s.4 1 1 1Zm6.7 0h2.5c.6 0 1-.4 1-1s-.4-1-1-1h-2.5c-.6 0-1 .4-1 1s.4 1 1 1Z"/></svg>
